<?xml version="1.0" standalone="no"?>
<!DOCTYPE svg PUBLIC "-//W3C//DTD SVG 20010904//EN"
 "http://www.w3.org/TR/2001/REC-SVG-20010904/DTD/svg10.dtd">
<svg version="1.0" xmlns="http://www.w3.org/2000/svg"
 width="100.000000pt" height="100.000000pt" viewBox="0 0 100.000000 100.000000"
 preserveAspectRatio="xMidYMid meet">
<metadata>
Created by potrace 1.11, written by Peter Selinger 2001-2013
</metadata>
<g transform="translate(0.000000,100.000000) scale(0.100000,-0.100000)"
fill="#000000" stroke="none">
<path d="M437 908 c-32 -4 -78 -16 -103 -27 -44 -20 -122 -75 -136 -96 -3 -5
-16 -21 -28 -35 -74 -83 -105 -250 -68 -370 38 -124 141 -230 268 -275 57 -20
189 -21 254 -1 166 51 287 219 287 397 0 136 -60 251 -174 335 -85 63 -185 87
-300 72z m233 -55 c71 -35 149 -113 186 -188 26 -55 29 -69 29 -165 0 -94 -3
-111 -27 -160 -52 -106 -141 -185 -245 -217 -44 -13 -157 -19 -193 -10 -86 22
-127 43 -183 96 -143 133 -172 337 -72 497 108 170 326 234 505 147z"/>
<path d="M420 861 c-102 -21 -208 -107 -256 -208 -24 -50 -28 -70 -28 -153 -1
-86 2 -101 28 -155 55 -112 166 -196 279 -211 l47 -7 0 101 0 101 -30 16 c-33
17 -40 18 -40 7 0 -5 11 -15 25 -22 24 -13 25 -18 25 -97 l0 -85 -32 7 c-107
22 -210 104 -256 203 -37 80 -38 202 -1 282 28 61 99 139 151 166 179 93 402
17 486 -165 22 -46 27 -71 27 -141 0 -71 -5 -94 -27 -142 -46 -99 -145 -179
-243 -197 l-45 -8 0 63 c0 68 1 70 31 54 27 -15 25 5 -3 24 -43 30 -48 22 -48
-75 l0 -91 46 7 c114 15 225 98 280 210 26 54 29 70 29 155 0 86 -3 101 -30
155 -63 125 -175 202 -307 210 -40 2 -89 1 -108 -4z"/>
<path d="M470 785 c0 -20 -5 -25 -25 -25 -14 0 -25 -4 -25 -10 0 -5 16 -10 35
-10 33 0 35 2 35 35 0 19 -4 35 -10 35 -5 0 -10 -11 -10 -25z"/>
<path d="M510 775 c0 -33 2 -35 35 -35 19 0 35 5 35 10 0 6 -11 10 -25 10 -20
0 -25 5 -25 25 0 14 -4 25 -10 25 -5 0 -10 -16 -10 -35z"/>
<path d="M420 710 c0 -5 11 -10 25 -10 16 0 25 -6 25 -15 0 -12 -19 -15 -110
-15 -67 0 -110 -4 -110 -10 0 -6 47 -10 120 -10 l120 0 0 35 c0 33 -2 35 -35
35 -19 0 -35 -4 -35 -10z"/>
<path d="M510 685 l0 -35 120 0 c73 0 120 4 120 10 0 6 -43 10 -110 10 -91 0
-110 3 -110 15 0 9 9 15 25 15 14 0 25 5 25 10 0 6 -16 10 -35 10 -33 0 -35
-2 -35 -35z"/>
<path d="M250 620 c0 -6 43 -10 110 -10 l110 0 0 -110 c0 -106 -1 -110 -19
-100 -23 12 -31 13 -31 2 0 -8 52 -42 64 -42 3 0 6 61 6 135 l0 135 -120 0
c-73 0 -120 -4 -120 -10z"/>
<path d="M510 491 l0 -140 29 -21 c17 -12 32 -16 36 -11 3 6 -6 18 -20 27 -25
16 -25 19 -25 140 l0 124 110 0 c67 0 110 4 110 10 0 6 -47 10 -120 10 l-120
0 0 -139z"/>
</g>
</svg>
