<?xml version="1.0" standalone="no"?>
<!DOCTYPE svg PUBLIC "-//W3C//DTD SVG 20010904//EN"
 "http://www.w3.org/TR/2001/REC-SVG-20010904/DTD/svg10.dtd">
<svg version="1.0" xmlns="http://www.w3.org/2000/svg"
 width="100.000000pt" height="100.000000pt" viewBox="0 0 100.000000 100.000000"
 preserveAspectRatio="xMidYMid meet">
<metadata>
Created by potrace 1.11, written by Peter Selinger 2001-2013
</metadata>
<g transform="translate(0.000000,100.000000) scale(0.100000,-0.100000)"
fill="#000000" stroke="none">
<path d="M373 895 c-100 -31 -206 -125 -250 -221 -103 -226 18 -498 255 -571
64 -19 175 -19 245 2 114 33 233 152 271 270 21 67 21 187 -1 251 -42 127
-150 231 -282 273 -46 15 -186 13 -238 -4z m290 -37 c74 -35 160 -121 195
-195 24 -52 27 -70 27 -163 0 -88 -4 -113 -23 -154 -98 -213 -342 -300 -547
-194 -104 54 -191 178 -203 292 -23 200 75 359 267 432 23 9 70 13 131 11 79
-2 105 -7 153 -29z"/>
<path d="M424 860 c-180 -36 -308 -212 -290 -399 15 -161 149 -302 309 -326
l47 -7 0 99 c0 98 0 99 -29 116 -34 20 -41 21 -41 7 0 -6 11 -16 25 -22 24
-11 25 -15 25 -95 0 -45 -3 -83 -7 -83 -34 0 -129 39 -168 68 -139 106 -181
282 -104 439 34 72 89 124 169 161 46 22 70 26 141 26 77 0 93 -3 152 -32 76
-37 127 -91 166 -172 22 -46 26 -69 26 -140 0 -76 -4 -93 -33 -152 -48 -99
-141 -171 -249 -193 l-33 -7 0 66 0 66 28 -6 27 -5 -24 20 c-44 39 -51 30 -51
-69 0 -103 -2 -101 91 -74 72 21 151 75 195 136 200 271 -40 643 -372 578z"/>
<path d="M470 785 c0 -20 -5 -25 -25 -25 -14 0 -25 -4 -25 -10 0 -5 16 -10 35
-10 33 0 35 2 35 35 0 19 -4 35 -10 35 -5 0 -10 -11 -10 -25z"/>
<path d="M510 775 c0 -33 2 -35 35 -35 19 0 35 5 35 10 0 6 -11 10 -25 10 -20
0 -25 5 -25 25 0 14 -4 25 -10 25 -5 0 -10 -16 -10 -35z"/>
<path d="M420 710 c0 -5 11 -10 25 -10 16 0 25 -6 25 -15 0 -12 -19 -15 -110
-15 -67 0 -110 -4 -110 -10 0 -6 47 -10 120 -10 l120 0 0 35 c0 33 -2 35 -35
35 -19 0 -35 -4 -35 -10z"/>
<path d="M510 685 l0 -35 120 0 c73 0 120 4 120 10 0 6 -43 10 -110 10 -91 0
-110 3 -110 15 0 9 9 15 25 15 14 0 25 5 25 10 0 6 -16 10 -35 10 -33 0 -35
-2 -35 -35z"/>
<path d="M250 620 c0 -6 43 -10 110 -10 l110 0 0 -110 c0 -106 -1 -110 -19
-100 -24 13 -31 13 -31 0 0 -8 51 -40 65 -40 3 0 5 61 5 135 l0 135 -120 0
c-73 0 -120 -4 -120 -10z"/>
<path d="M510 491 c0 -133 1 -141 22 -155 36 -26 58 -19 26 7 -28 23 -28 24
-28 145 l0 122 110 0 c67 0 110 4 110 10 0 6 -47 10 -120 10 l-120 0 0 -139z"/>
</g>
</svg>
